<mxfile host="app.diagrams.net" modified="2023-05-31T14:22:35.559Z" agent="Mozilla/5.0 (Windows NT 10.0; Win64; x64) AppleWebKit/537.36 (KHTML, like Gecko) Chrome/113.0.0.0 Safari/537.36" etag="HPiy8gL4wu2Ulhb9xqF0" version="21.3.5" type="device">
  <diagram name="Page-1" id="2YBvvXClWsGukQMizWep">
    <mxGraphModel dx="794" dy="470" grid="1" gridSize="10" guides="1" tooltips="1" connect="1" arrows="1" fold="1" page="1" pageScale="1" pageWidth="850" pageHeight="1100" math="0" shadow="0">
      <root>
        <mxCell id="0" />
        <mxCell id="1" parent="0" />
        <mxCell id="Cchv30_wJxXe0vrXIu7S-1" value="Actor" style="shape=umlActor;verticalLabelPosition=bottom;verticalAlign=top;html=1;outlineConnect=0;" vertex="1" parent="1">
          <mxGeometry x="100" y="80" width="30" height="60" as="geometry" />
        </mxCell>
        <mxCell id="Cchv30_wJxXe0vrXIu7S-2" value="Paciente" style="text;html=1;align=center;verticalAlign=middle;resizable=0;points=[];autosize=1;strokeColor=none;fillColor=none;" vertex="1" parent="1">
          <mxGeometry x="80" y="158" width="70" height="30" as="geometry" />
        </mxCell>
        <mxCell id="Cchv30_wJxXe0vrXIu7S-3" value="" style="edgeStyle=none;orthogonalLoop=1;jettySize=auto;html=1;rounded=0;" edge="1" parent="1">
          <mxGeometry width="100" relative="1" as="geometry">
            <mxPoint x="150" y="100" as="sourcePoint" />
            <mxPoint x="280" y="100" as="targetPoint" />
            <Array as="points" />
          </mxGeometry>
        </mxCell>
        <mxCell id="Cchv30_wJxXe0vrXIu7S-4" value="Solicita turno" style="text;html=1;align=center;verticalAlign=middle;resizable=0;points=[];autosize=1;strokeColor=none;fillColor=none;" vertex="1" parent="1">
          <mxGeometry x="160" y="68" width="90" height="30" as="geometry" />
        </mxCell>
        <mxCell id="Cchv30_wJxXe0vrXIu7S-6" value="" style="html=1;points=[];perimeter=orthogonalPerimeter;outlineConnect=0;targetShapes=umlLifeline;portConstraint=eastwest;newEdgeStyle={&quot;edgeStyle&quot;:&quot;elbowEdgeStyle&quot;,&quot;elbow&quot;:&quot;vertical&quot;,&quot;curved&quot;:0,&quot;rounded&quot;:0};" vertex="1" parent="1">
          <mxGeometry x="280" y="90" width="10" height="80" as="geometry" />
        </mxCell>
        <mxCell id="Cchv30_wJxXe0vrXIu7S-7" value="Administrativo" style="shape=umlLifeline;perimeter=lifelinePerimeter;whiteSpace=wrap;html=1;container=1;dropTarget=0;collapsible=0;recursiveResize=0;outlineConnect=0;portConstraint=eastwest;newEdgeStyle={&quot;edgeStyle&quot;:&quot;elbowEdgeStyle&quot;,&quot;elbow&quot;:&quot;vertical&quot;,&quot;curved&quot;:0,&quot;rounded&quot;:0};size=30;" vertex="1" parent="1">
          <mxGeometry x="245" y="43" width="80" height="157" as="geometry" />
        </mxCell>
        <mxCell id="Cchv30_wJxXe0vrXIu7S-8" value="" style="edgeStyle=none;orthogonalLoop=1;jettySize=auto;html=1;rounded=0;" edge="1" parent="1">
          <mxGeometry width="100" relative="1" as="geometry">
            <mxPoint x="290" y="120" as="sourcePoint" />
            <mxPoint x="400" y="120" as="targetPoint" />
            <Array as="points" />
          </mxGeometry>
        </mxCell>
        <mxCell id="Cchv30_wJxXe0vrXIu7S-9" value="Registra datos&lt;br&gt;&amp;nbsp;paciente" style="text;html=1;align=center;verticalAlign=middle;resizable=0;points=[];autosize=1;strokeColor=none;fillColor=none;" vertex="1" parent="1">
          <mxGeometry x="290" y="80" width="100" height="40" as="geometry" />
        </mxCell>
        <mxCell id="Cchv30_wJxXe0vrXIu7S-10" value="" style="html=1;points=[];perimeter=orthogonalPerimeter;outlineConnect=0;targetShapes=umlLifeline;portConstraint=eastwest;newEdgeStyle={&quot;edgeStyle&quot;:&quot;elbowEdgeStyle&quot;,&quot;elbow&quot;:&quot;vertical&quot;,&quot;curved&quot;:0,&quot;rounded&quot;:0};" vertex="1" parent="1">
          <mxGeometry x="400" y="90" width="10" height="100" as="geometry" />
        </mxCell>
        <mxCell id="Cchv30_wJxXe0vrXIu7S-11" value="Turno" style="shape=umlLifeline;perimeter=lifelinePerimeter;whiteSpace=wrap;html=1;container=1;dropTarget=0;collapsible=0;recursiveResize=0;outlineConnect=0;portConstraint=eastwest;newEdgeStyle={&quot;edgeStyle&quot;:&quot;elbowEdgeStyle&quot;,&quot;elbow&quot;:&quot;vertical&quot;,&quot;curved&quot;:0,&quot;rounded&quot;:0};size=30;" vertex="1" parent="1">
          <mxGeometry x="382.5" y="43" width="45" height="157" as="geometry" />
        </mxCell>
        <mxCell id="Cchv30_wJxXe0vrXIu7S-12" value="" style="edgeStyle=none;orthogonalLoop=1;jettySize=auto;html=1;rounded=0;" edge="1" parent="1">
          <mxGeometry width="100" relative="1" as="geometry">
            <mxPoint x="510" y="140" as="sourcePoint" />
            <mxPoint x="410" y="140" as="targetPoint" />
            <Array as="points" />
          </mxGeometry>
        </mxCell>
        <mxCell id="Cchv30_wJxXe0vrXIu7S-13" value="Registra&lt;br&gt;&amp;nbsp;disponibilidad" style="text;html=1;align=center;verticalAlign=middle;resizable=0;points=[];autosize=1;strokeColor=none;fillColor=none;" vertex="1" parent="1">
          <mxGeometry x="410" y="90" width="100" height="40" as="geometry" />
        </mxCell>
        <mxCell id="Cchv30_wJxXe0vrXIu7S-14" value="" style="html=1;points=[];perimeter=orthogonalPerimeter;outlineConnect=0;targetShapes=umlLifeline;portConstraint=eastwest;newEdgeStyle={&quot;edgeStyle&quot;:&quot;elbowEdgeStyle&quot;,&quot;elbow&quot;:&quot;vertical&quot;,&quot;curved&quot;:0,&quot;rounded&quot;:0};" vertex="1" parent="1">
          <mxGeometry x="510" y="90" width="10" height="120" as="geometry" />
        </mxCell>
        <mxCell id="Cchv30_wJxXe0vrXIu7S-15" value="Medico" style="shape=umlLifeline;perimeter=lifelinePerimeter;whiteSpace=wrap;html=1;container=1;dropTarget=0;collapsible=0;recursiveResize=0;outlineConnect=0;portConstraint=eastwest;newEdgeStyle={&quot;edgeStyle&quot;:&quot;elbowEdgeStyle&quot;,&quot;elbow&quot;:&quot;vertical&quot;,&quot;curved&quot;:0,&quot;rounded&quot;:0};size=30;" vertex="1" parent="1">
          <mxGeometry x="490" y="43" width="50" height="167" as="geometry" />
        </mxCell>
        <mxCell id="Cchv30_wJxXe0vrXIu7S-16" value="" style="edgeStyle=none;orthogonalLoop=1;jettySize=auto;html=1;rounded=0;" edge="1" parent="1">
          <mxGeometry width="100" relative="1" as="geometry">
            <mxPoint x="290" y="160" as="sourcePoint" />
            <mxPoint x="400" y="160" as="targetPoint" />
            <Array as="points">
              <mxPoint x="330" y="160" />
            </Array>
          </mxGeometry>
        </mxCell>
        <mxCell id="Cchv30_wJxXe0vrXIu7S-17" value="Asigna turno" style="text;html=1;align=center;verticalAlign=middle;resizable=0;points=[];autosize=1;strokeColor=none;fillColor=none;" vertex="1" parent="1">
          <mxGeometry x="290" y="130" width="90" height="30" as="geometry" />
        </mxCell>
        <mxCell id="Cchv30_wJxXe0vrXIu7S-18" value="Atiende paciente" style="text;html=1;align=center;verticalAlign=middle;resizable=0;points=[];autosize=1;strokeColor=none;fillColor=none;" vertex="1" parent="1">
          <mxGeometry x="400" y="180" width="110" height="30" as="geometry" />
        </mxCell>
        <mxCell id="Cchv30_wJxXe0vrXIu7S-19" value="" style="edgeStyle=none;orthogonalLoop=1;jettySize=auto;html=1;rounded=0;" edge="1" parent="1" source="Cchv30_wJxXe0vrXIu7S-15">
          <mxGeometry width="100" relative="1" as="geometry">
            <mxPoint x="460" y="220" as="sourcePoint" />
            <mxPoint x="120" y="200" as="targetPoint" />
            <Array as="points" />
          </mxGeometry>
        </mxCell>
      </root>
    </mxGraphModel>
  </diagram>
</mxfile>
